<?xml version="1.0" standalone="no"?>
<!DOCTYPE svg PUBLIC "-//W3C//DTD SVG 20010904//EN"
 "http://www.w3.org/TR/2001/REC-SVG-20010904/DTD/svg10.dtd">
<svg version="1.0" xmlns="http://www.w3.org/2000/svg"
 width="612.000000pt" height="408.000000pt" viewBox="0 0 612.000000 408.000000"
 preserveAspectRatio="xMidYMid meet">
<metadata>
Created by potrace 1.16, written by Peter Selinger 2001-2019
</metadata>
<g transform="translate(0.000000,408.000000) scale(0.100000,-0.100000)"
fill="#000000" stroke="none">
<path d="M0 2040 l0 -2040 3060 0 3060 0 0 2040 0 2040 -3060 0 -3060 0 0
-2040z m4887 1142 c7 -5 -37 -23 -110 -46 -179 -55 -410 -152 -682 -286 -221
-109 -436 -230 -485 -272 -11 -10 -25 -18 -31 -18 -6 0 -24 -11 -41 -25 -30
-25 -55 -34 -43 -15 3 6 -1 10 -10 10 -11 0 -15 -5 -12 -14 3 -8 -1 -20 -9
-26 -11 -10 -14 -9 -14 6 0 16 -2 16 -9 4 -6 -8 -7 -18 -4 -24 4 -5 -1 -7 -11
-3 -14 5 -17 3 -12 -8 3 -10 -5 -20 -27 -31 -32 -17 -32 -16 -14 3 21 24 23
40 2 23 -11 -9 -15 -9 -15 -1 0 7 -5 9 -10 6 -6 -3 -7 -18 -4 -32 7 -25 6 -25
-35 -18 -40 7 -43 5 -53 -22 -6 -15 -21 -36 -34 -46 -27 -20 -33 -7 -8 18 9 9
14 18 12 20 -3 3 -24 -13 -48 -35 -24 -22 -47 -40 -52 -40 -4 0 -8 -4 -8 -9 0
-5 -18 -12 -40 -16 -26 -4 -52 -18 -72 -38 -17 -18 -35 -31 -40 -29 -4 1 -7
-1 -6 -5 3 -18 -15 -43 -32 -43 -26 0 -51 -11 -45 -20 3 -4 -1 -10 -8 -13 -8
-3 -19 4 -26 15 -11 17 -7 24 31 60 24 22 77 73 118 113 41 39 104 94 140 121
36 28 94 72 130 100 97 74 159 116 222 152 31 18 58 36 60 41 2 5 80 51 173
103 94 53 192 109 218 126 50 31 172 86 312 140 126 48 160 56 181 43 18 -10
18 -11 -3 -17 -13 -3 -23 -10 -23 -15 0 -11 5 -11 55 1 22 6 78 13 125 16 47
3 110 14 140 24 79 28 136 36 157 22z m-117 -359 c-1 -12 -68 -52 -98 -59 -15
-4 -37 -17 -50 -30 -13 -13 -31 -24 -42 -24 -10 0 -30 -11 -43 -24 -28 -28
-93 -44 -109 -28 -7 7 4 13 36 17 25 4 49 12 52 17 3 5 -2 8 -12 7 -27 -4 -74
10 -74 22 0 5 15 9 33 9 72 -3 143 15 110 27 -19 7 -16 23 5 23 9 0 31 7 47
16 46 25 146 43 145 27z m-410 -237 c-25 -13 -60 -27 -79 -31 -20 -4 -29 -10
-22 -14 9 -6 8 -11 -3 -20 -18 -15 -222 -25 -231 -11 -8 13 25 19 112 23 68 3
118 17 61 17 -13 0 -28 3 -32 8 -4 4 -22 12 -39 19 -30 11 -26 12 48 14 44 1
103 3 132 3 28 1 55 4 59 9 4 4 14 7 23 7 9 0 -4 -11 -29 -24z m-1125 -815
c29 -7 30 -7 8 -19 -12 -7 -31 -12 -42 -12 -12 0 -21 -5 -21 -11 0 -6 15 -8
44 -4 55 9 68 -8 25 -30 -22 -12 -30 -22 -26 -35 7 -26 -17 -32 -106 -30 -40
1 -76 1 -82 0 -29 -6 -53 -4 -77 7 -33 16 -41 16 -33 3 3 -5 0 -10 -9 -10 -8
0 -16 4 -18 10 -2 6 -19 6 -46 -1 -50 -11 -62 -6 -62 25 0 15 -9 27 -26 35
-40 18 -22 25 74 27 58 1 76 -1 52 -6 -30 -6 -31 -8 -10 -10 18 -2 20 -4 8 -7
-43 -11 -12 -23 62 -24 171 -2 202 -1 195 11 -3 6 -16 11 -28 11 -14 1 -9 4
13 9 27 6 18 8 -42 9 -46 0 -78 5 -80 12 -3 8 -34 11 -91 10 -50 -1 -87 3 -87
8 0 6 -16 7 -37 4 -26 -4 -34 -3 -29 6 4 6 10 10 14 7 4 -2 16 0 27 5 24 9
387 9 430 0z m-49 -176 c11 -8 26 -15 36 -15 21 0 12 -40 -9 -40 -8 0 -11 5
-8 10 4 6 -11 10 -38 10 -25 0 -59 3 -76 6 -19 4 -31 2 -31 -4 0 -6 19 -15 42
-19 23 -5 43 -13 45 -19 4 -13 -35 -26 -42 -14 -3 5 3 11 12 13 18 5 -46 12
-79 9 -10 -1 -18 3 -18 9 0 7 -10 9 -25 5 -20 -5 -23 -3 -18 11 5 13 2 15 -11
10 -10 -4 -29 -7 -43 -7 -21 0 -24 -2 -13 -15 7 -8 9 -15 5 -15 -4 0 -13 7
-19 16 -9 12 -19 13 -54 6 -24 -6 -39 -6 -36 -1 3 5 0 9 -5 9 -22 0 -10 17 22
32 45 21 336 24 363 3z m-606 -30 c0 -2 -12 -11 -28 -19 -23 -12 -262 -239
-262 -249 0 -1 33 0 73 4 39 4 111 8 160 8 l87 1 2 -97 c0 -54 1 -104 1 -110
-1 -16 21 -17 47 -3 15 8 20 6 25 -9 7 -22 39 -33 53 -19 6 6 15 7 21 4 20
-13 11 -26 -16 -26 -21 0 -24 -3 -15 -12 17 -17 15 -28 -5 -26 -50 4 -75 -3
-80 -22 -3 -11 -14 -20 -24 -20 -32 0 -21 -18 19 -31 51 -16 56 -20 41 -30
-10 -6 -8 -9 8 -9 35 0 261 -77 291 -99 l28 -19 69 34 c78 38 118 51 220 69
66 12 67 13 25 14 l-45 2 53 23 c60 26 86 46 59 46 -10 0 -20 6 -23 14 -3 8
-15 17 -27 20 -26 6 -20 14 15 18 34 5 49 18 20 18 -19 0 -20 3 -11 30 6 17
17 30 25 30 11 0 14 21 14 102 l0 101 318 -7 c174 -4 398 -12 497 -18 99 -7
281 -11 404 -10 l223 2 129 -127 c71 -70 153 -143 182 -161 49 -30 69 -52 50
-52 -4 0 -78 -4 -163 -10 -85 -5 -229 -14 -320 -20 -156 -9 -709 2 -771 16
-37 8 -446 5 -514 -4 -41 -5 14 -8 175 -7 129 0 321 -6 425 -14 237 -18 781
-17 1038 1 140 10 195 11 215 2 30 -12 55 -8 -283 -40 -127 -12 -356 -18 -910
-24 -621 -6 -756 -10 -840 -24 -117 -20 -168 -32 -212 -53 -30 -14 -37 -13
-95 6 -110 36 -189 51 -348 66 -411 38 -917 49 -1482 32 -268 -8 -404 -9 -400
-2 74 128 218 288 302 337 25 15 68 29 95 32 225 25 630 52 870 59 82 2 90 0
93 -18 4 -17 3 -18 -13 -5 -16 13 -19 13 -23 1 -3 -8 -38 -46 -80 -85 -64 -61
-136 -145 -166 -195 -5 -8 12 0 37 17 32 22 57 32 84 32 34 0 44 6 78 47 22
26 39 51 38 55 -2 4 3 5 10 2 7 -2 24 7 37 21 24 25 24 27 8 56 -21 36 -17 36
18 4 15 -14 31 -25 35 -25 16 0 10 26 -11 50 -22 25 -26 35 -10 25 6 -3 10 -2
10 4 0 5 -6 11 -12 14 -7 3 -3 4 9 4 17 -1 20 -5 12 -18 -10 -20 10 -32 31
-19 11 7 11 11 0 24 -11 14 -10 16 3 11 9 -4 21 3 31 17 9 12 16 17 16 10 0
-6 5 -12 11 -12 14 0 44 30 44 46 0 6 21 30 46 52 33 30 52 39 67 35 13 -3 22
-1 22 6 0 7 -5 9 -11 5 -19 -12 7 29 33 51 l23 20 -23 -26 c-12 -14 -19 -28
-16 -32 9 -9 69 61 69 80 0 9 7 18 15 20 13 4 13 3 0 -6 -8 -5 -11 -13 -7 -17
4 -4 15 0 24 8 24 20 63 35 63 23z m101 -30 c5 4 9 1 9 -4 0 -6 -10 -10 -22
-8 -17 1 -24 -4 -26 -22 -2 -13 1 -21 6 -17 8 5 40 -3 99 -25 13 -5 33 -5 46
0 13 5 52 12 87 16 36 4 85 11 109 16 56 12 203 -13 244 -43 16 -11 35 -17 43
-14 8 3 17 -1 20 -9 11 -27 35 -17 32 11 -2 22 3 29 25 36 16 6 31 7 35 4 3
-4 7 -42 7 -86 0 -43 -3 -73 -7 -67 -4 7 -8 23 -9 37 -1 23 -2 23 -8 -4 -8
-37 -44 -49 -126 -40 -109 11 -201 50 -211 89 -3 14 -9 25 -14 25 -10 0 -36
-31 -43 -52 -4 -10 -13 -18 -21 -18 -9 0 -41 -12 -72 -26 -47 -22 -67 -25
-130 -22 -68 3 -74 1 -75 -17 -2 -17 -2 -17 -6 3 -4 22 -23 32 -23 11 0 -5 -5
-7 -11 -3 -8 4 -10 28 -6 68 3 33 3 79 -1 101 -6 32 -4 44 13 63 16 20 21 21
23 8 2 -9 8 -14 13 -11z m493 -473 c-15 -10 -14 -42 2 -42 6 0 14 -9 17 -20 3
-11 1 -20 -4 -20 -5 0 -9 7 -9 16 0 13 -5 11 -24 -7 -29 -28 -17 -40 28 -29
17 5 42 7 56 5 14 -2 29 -4 35 -4 15 -2 -26 -26 -75 -44 -56 -21 -71 -21 -46
-2 34 25 -3 17 -70 -16 -44 -21 -61 -34 -57 -45 3 -8 1 -14 -5 -14 -6 0 -13 6
-15 13 -3 6 -6 -1 -6 -17 -1 -24 -3 -27 -16 -16 -9 8 -13 21 -9 32 4 13 -4 28
-26 48 -31 29 -80 41 -80 19 0 -5 -5 -7 -11 -3 -7 4 -37 12 -67 18 -77 15 -85
42 -11 33 30 -4 75 -7 100 -7 46 0 70 -14 101 -59 14 -20 15 -20 63 4 27 14
54 25 61 25 7 0 16 5 20 11 7 12 3 11 -63 -7 -32 -9 -29 12 5 30 15 8 21 15
15 16 -8 0 -13 13 -13 33 0 27 5 35 28 44 31 12 93 17 76 5z"/>
<path d="M4208 2973 c-14 -2 -32 -11 -38 -19 -7 -8 -20 -14 -29 -14 -9 0 -27
-9 -41 -20 -14 -11 -31 -20 -37 -20 -7 0 -35 -16 -63 -36 -27 -20 -50 -33 -50
-29 0 3 -15 -5 -32 -18 -18 -14 -43 -28 -55 -32 -13 -3 -23 -10 -23 -13 0 -4
-16 -16 -35 -26 -19 -11 -35 -23 -35 -28 0 -4 -6 -8 -12 -8 -7 0 -31 -16 -53
-36 -29 -26 -32 -30 -10 -16 50 33 295 167 431 236 157 79 168 86 134 84 -14
0 -37 -3 -52 -5z"/>
</g>
</svg>
